<svg xmlns="http://www.w3.org/2000/svg" viewBox="0 0 128 128" fill="none">
    <rect width="128" height="128" rx="28" fill="#0F172A" />
    <path
        d="M27 64C27 43.5655 43.5655 27 64 27H77C92.464 27 105 39.536 105 55V64C105 84.4345 88.4345 101 68 101H55C39.536 101 27 88.464 27 73V64Z"
        fill="#F8FAFC" />
    <path d="M46 47H69C78.3888 47 86 54.6112 86 64C86 73.3888 78.3888 81 69 81H46V47Z"
        fill="#0EA5E9" />
    <path d="M52 57H69C72.866 57 76 60.134 76 64C76 67.866 72.866 71 69 71H52V57Z" fill="#0F172A" />
</svg>